<svg width="33" height="25" viewBox="0 0 33 25" fill="none" xmlns="http://www.w3.org/2000/svg">
<path d="M15.472 24.4096L0.392175 3.19453C0.140434 2.84055 0 2.37026 0 1.8812C0 1.39215 0.140434 0.921858 0.392175 0.567875L0.409214 0.545033C0.531253 0.372833 0.67815 0.235716 0.840969 0.142017C1.00379 0.0483189 1.17913 0 1.35632 0C1.5335 0 1.70884 0.0483189 1.87166 0.142017C2.03448 0.235716 2.18138 0.372833 2.30342 0.545033L16.5028 20.5229L30.6966 0.545033C30.8186 0.372833 30.9655 0.235716 31.1283 0.142017C31.2912 0.0483189 31.4665 0 31.6437 0C31.8209 0 31.9962 0.0483189 32.159 0.142017C32.3218 0.235716 32.4687 0.372833 32.5908 0.545033L32.6078 0.567875C32.8596 0.921858 33 1.39215 33 1.8812C33 2.37026 32.8596 2.84055 32.6078 3.19453L17.528 24.4096C17.3954 24.5961 17.2359 24.7447 17.0592 24.8462C16.8825 24.9477 16.6922 25 16.5 25C16.3077 25 16.1175 24.9477 15.9408 24.8462C15.7641 24.7447 15.6046 24.5961 15.472 24.4096Z" fill="black"/>
</svg>
